<?xml version="1.0" encoding="UTF-8"?>
<svg width="564px" height="167px" viewBox="0 0 564 167" version="1.1" xmlns="http://www.w3.org/2000/svg" xmlns:xlink="http://www.w3.org/1999/xlink">
    <title>WFOT General Assembly 2026 Dark</title>
    <g id="WFOT-General-Assembly-2026-Dark" stroke="none" stroke-width="1" fill="none" fill-rule="evenodd">
        <path d="M31.9525321,83.5469544 L31.9525321,88.1296847 C32.9974703,87.7566484 33.7357202,86.8711887 33.7357202,85.8383195 C33.7357202,84.8054503 32.9974703,83.9199906 31.9525321,83.5469544 Z M31.9525321,90.565451 L31.9525321,94.8162593 L32.02346,94.8162593 C32.885584,94.4281812 33.480979,93.6239472 33.480979,92.7084039 C33.480979,91.7577631 32.8546155,90.9334733 31.9525321,90.565451 Z M29.7507694,88.1246708 L29.7507694,83.5519683 C28.71682,83.9250045 27.9825661,84.8104643 27.9825661,85.8383195 C27.9825661,86.8671776 28.71682,87.7516345 29.7507694,88.1246708 Z M29.7507694,94.8162593 L29.7507694,90.565451 C28.8586759,90.9435012 28.2373073,91.7617742 28.2373073,92.7084039 C28.2373073,93.6239472 28.8237114,94.4281812 29.6898313,94.8162593 L29.7507694,94.8162593 Z M31.9525321,101.615146 C46.053204,102.146622 57.4236502,113.799994 57.4236502,128.046569 C57.4236502,142.324231 46.0841725,153.946517 31.9525321,154.472979 L31.9525321,156.821503 C47.3588773,156.25894 59.7572789,143.603786 59.7572789,128.046569 C59.7572789,112.485342 47.3588773,99.8341986 31.9525321,99.2726386 L31.9525321,101.615146 Z M4.57634984,128.046569 C4.57634984,113.861164 15.746,102.269965 29.7507694,101.615146 L29.7507694,99.2726386 C14.4423247,99.9264548 2.24172212,112.546512 2.24172212,128.046569 C2.24172212,143.511529 14.4423247,156.16167 29.7507694,156.821503 L29.7507694,154.472979 C15.746,153.824177 4.57634984,142.231975 4.57634984,128.046569 Z M31.9525321,138.947852 C37.4919034,138.451473 41.9563669,133.730358 41.9563669,128.046569 C41.9563669,122.327683 37.5228719,117.641666 31.9525321,117.110189 L31.9525321,138.947852 Z M20.0426341,128.046569 C20.0426341,133.668186 24.3082996,138.324119 29.7507694,138.947852 L29.7507694,117.140273 C24.3082996,117.770022 20.0426341,122.419939 20.0426341,128.046569 Z M31.9525321,105.988294 C43.6536423,106.550857 53.066078,116.203671 53.066078,128.046569 C53.066078,139.889468 43.6536423,149.573369 31.9525321,150.099831 L31.9525321,152.319998 C44.8664099,151.757436 55.2778306,141.10685 55.2778306,128.046569 C55.2778306,114.987292 44.8664099,104.331692 31.9525321,103.768127 L31.9525321,105.988294 Z M8.96389153,128.046569 C8.96389153,116.265844 18.1425648,106.643113 29.7507694,105.988294 L29.7507694,103.768127 C16.9287982,104.42796 6.75113997,115.048462 6.75113997,128.046569 C6.75113997,141.04568 16.9287982,151.634093 29.7507694,152.289915 L29.7507694,150.074761 C18.1425648,149.445012 8.96389153,139.822281 8.96389153,128.046569 Z M31.9525321,110.551971 C41.1352013,111.114534 48.4897282,118.736708 48.4897282,128.046569 C48.4897282,137.357434 41.1352013,145.009691 31.9525321,145.54217 L31.9525321,147.884678 C42.4099061,147.353201 50.8543254,138.667072 50.8543254,128.046569 C50.8543254,117.421053 42.4099061,108.740941 31.9525321,108.208461 L31.9525321,110.551971 Z M13.5092728,128.046569 C13.5092728,118.797878 20.6640027,111.20679 29.7507694,110.551971 L29.7507694,108.208461 C19.390297,108.86328 11.1696502,117.483226 11.1696502,128.046569 C11.1696502,138.604899 19.390297,147.229859 29.7507694,147.884678 L29.7507694,145.511084 C20.6640027,144.887351 13.5092728,137.29125 13.5092728,128.046569 Z M31.9525321,143.449357 C39.9843707,142.91788 46.4358152,136.231306 46.4358152,128.046569 C46.4358152,119.861833 39.9843707,113.176261 31.9525321,112.612696 L31.9525321,115.048462 C38.643733,115.579939 44.0102799,121.202558 44.0102799,128.046569 C44.0102799,134.885567 38.643733,140.514203 31.9525321,141.04568 L31.9525321,143.449357 Z M15.5581909,128.046569 C15.5581909,136.171139 21.8168313,142.82061 29.7507694,143.449357 L29.7507694,141.009579 C23.15647,140.385847 17.9887211,134.8254 17.9887211,128.046569 C17.9887211,121.263727 23.15647,115.708295 29.7507694,115.078546 L29.7507694,112.643782 C21.8168313,113.268518 15.5581909,119.923003 15.5581909,128.046569 Z M31.9525321,97.0213849 C48.6016145,97.5839476 62,111.236874 62,128.046569 C62,144.851251 48.6016145,158.540278 31.9525321,159.067743 L31.9525321,166 L29.7507694,166 L29.7507694,159.067743 C13.1935936,158.412924 0,144.758995 0,128.046569 C0,111.299047 13.1935936,97.6762039 29.7507694,97.0213849 L29.7507694,96.145953 L26.4231507,96.145953 L26.4231507,94.8162593 L27.9466026,94.8162593 C27.4271305,94.237652 27.1164462,93.5016073 27.1164462,92.7084039 C27.1164462,91.1992115 28.2273174,89.919657 29.7507694,89.4964815 L29.7507694,89.3330274 C27.9675813,88.9128603 26.6519182,87.505952 26.6519182,85.8383195 C26.6519182,84.1757009 27.9675813,82.7697955 29.7507694,82.3496283 L29.7507694,82.2523581 C27.2692909,81.8542522 25.3892013,80.1445027 25.3892013,78.1088479 C25.3892013,76.8042238 26.1634146,75.6319674 27.3711873,74.8548085 C28.6608769,74.1749199 29.2113175,75.8174827 28.1713742,76.1293491 C27.325234,76.6407697 26.8816847,77.3266751 26.8816847,78.1650039 C26.8816847,79.4335277 28.1004463,80.5085139 29.7507694,80.8454499 L29.7507694,68.0769804 C25.4960927,63.1914089 22.233408,58.9155309 19.9207579,55.2112408 C17.6071089,51.5129674 13.8868891,43.2099024 14.4163511,42.5961976 C14.6111532,42.3705708 15.3743776,42.6623814 15.746,42.678426 C16.9597667,42.7085096 16.806922,41.9564204 16.7100205,41.8340805 C15.6401076,40.3970887 10.5942349,28.8610428 10.1616744,25.347282 C10.1157211,24.9521844 10.2935404,24.9060563 10.5482816,25.0654992 C10.9968258,25.3362513 11.6601518,25.8998168 12.6021945,26.3691205 C13.2545317,26.7120732 14.2335369,27.5774772 14.2485217,25.5057221 C14.2485217,25.5057221 12.8009925,9.07909069 14.0846881,0.572460187 C14.1116607,0.409006129 14.1516201,0.21847686 14.2425278,0.101150941 C14.3294394,-0.0111610497 14.5192466,-0.0372334761 14.6301339,0.0600367301 C14.7939674,0.204437861 14.8658943,0.460148196 14.890869,0.659702537 C17.5201972,24.4919058 28.1963489,44.7702368 28.1963489,44.7702368 C28.1963489,44.7702368 29.0674637,47.8598194 29.7507694,44.8624931 L29.7507694,30.0122407 L31.9525321,30.0122407 L31.9525321,44.8624931 C32.6358378,47.8598194 33.5129465,44.7702368 33.5129465,44.7702368 C33.5129465,44.7702368 44.1831043,24.4919058 46.8184264,0.659702537 C46.8384061,0.460148196 46.915328,0.204437861 47.0781625,0.0600367301 C47.1850539,-0.0372334761 47.373862,-0.0111610497 47.4597747,0.101150941 C47.5566763,0.21847686 47.5926397,0.409006129 47.6186133,0.572460187 C48.9023089,9.07909069 47.4597747,25.5057221 47.4597747,25.5057221 C47.4707636,27.5774772 48.4487698,26.7120732 49.1011069,26.3691205 C50.0491436,25.8998168 50.7064757,25.3362513 51.1550199,25.0654992 C51.409761,24.9060563 51.5935743,24.9521844 51.5416271,25.347282 C51.1090666,28.8610428 46.0641928,40.3970887 44.99428,41.8340805 C44.9023734,41.9564204 44.7445338,42.7085096 45.9573015,42.678426 C46.3339188,42.6623814 47.0931473,42.3705708 47.2869504,42.5961976 C47.8174113,43.2099024 44.1021865,51.5129674 41.7885375,55.2112408 C39.4738894,58.9155309 36.2082078,63.1914089 31.9525321,68.0769804 L31.9525321,80.8454499 C33.613844,80.5135278 34.8326056,79.4385416 34.8326056,78.1650039 C34.8326056,77.3266751 34.3880573,76.6407697 33.547911,76.1293491 C32.5029728,75.8174827 33.0584084,74.1749199 34.343103,74.8548085 C35.5548717,75.6319674 36.325089,76.8042238 36.325089,78.1088479 C36.325089,80.1495166 34.4449994,81.8582634 31.9525321,82.2523581 L31.9525321,82.3446144 C33.7417141,82.7587649 35.0613731,84.170687 35.0613731,85.8383195 C35.0613731,87.505952 33.7417141,88.9178742 31.9525321,89.3330274 L31.9525321,89.4914676 C33.480979,89.9156459 34.5968451,91.1941976 34.5968451,92.7084039 C34.5968451,93.5016073 34.2811659,94.237652 33.7666887,94.8162593 L35.265166,94.8162593 L35.265166,96.145953 L31.9525321,96.145953 L31.9525321,97.0213849 Z" id="Fill-2" fill="#1E1734"></path>
        <path d="M86.984,66.476 L86.984,57.192 L79.724,57.192 L79.724,60.36 L83.2,60.36 L83.2,66.608 C83.2,69.16 81.924,70.964 79.724,70.964 C78.492,70.964 77.7,70.48 77.172,69.776 C76.072,68.28 75.852,65.772 75.852,58.336 C75.852,50.9 76.072,48.392 77.172,46.896 C77.7,46.192 78.492,45.708 79.724,45.708 C82.628,45.708 83.2,48.348 83.2,50.46 L86.984,50.46 C86.94,47.908 86.236,45.752 84.784,44.256 C83.596,43.068 81.924,42.32 79.724,42.32 C77.216,42.32 75.544,43.244 74.356,44.564 C72.2,46.94 72.068,50.504 72.068,58.336 C72.068,66.168 72.2,69.732 74.356,72.108 C75.544,73.428 77.216,74.352 79.724,74.352 C83.816,74.352 86.984,71.668 86.984,66.476 Z M104.012,74 L104.012,70.612 L95.696,70.612 L95.696,59.964 L102.868,59.964 L102.868,56.576 L95.696,56.576 L95.696,46.06 L104.012,46.06 L104.012,42.672 L91.912,42.672 L91.912,74 L104.012,74 Z M123.944,74 L123.944,42.672 L120.16,42.672 L120.204,64.1 L112.152,42.672 L108.632,42.672 L108.632,74 L112.416,74 L112.416,52.572 L120.512,74 L123.944,74 Z M141.72,74 L141.72,70.612 L133.404,70.612 L133.404,59.964 L140.576,59.964 L140.576,56.576 L133.404,56.576 L133.404,46.06 L141.72,46.06 L141.72,42.672 L129.62,42.672 L129.62,74 L141.72,74 Z M161.828,74 L157.032,59.788 C159.76,58.512 160.816,55.96 160.816,51.604 C160.816,44.74 158.176,42.672 153.424,42.672 L146.34,42.672 L146.34,74 L150.124,74 L150.124,60.536 L153.556,60.536 L157.868,74 L161.828,74 Z M157.032,51.604 C157.032,54.948 156.372,57.192 153.468,57.192 L150.124,57.192 L150.124,46.06 L153.468,46.06 C156.372,46.06 157.032,48.304 157.032,51.604 Z M181.98,74 L174.72,42.672 L171.068,42.672 L163.764,74 L167.724,74 L169.22,66.608 L176.48,66.608 L177.976,74 L181.98,74 Z M175.776,63.22 L169.924,63.22 L172.872,48.788 L175.776,63.22 Z M197.116,74 L197.116,70.612 L188.8,70.612 L188.8,42.672 L185.016,42.672 L185.016,74 L197.116,74 Z M224.748,74 L217.488,42.672 L213.836,42.672 L206.532,74 L210.492,74 L211.988,66.608 L219.248,66.608 L220.744,74 L224.748,74 Z M218.544,63.22 L212.692,63.22 L215.64,48.788 L218.544,63.22 Z M241.556,65.596 C241.556,60.668 240.72,58.468 237.156,57.016 L233.636,55.564 C231.128,54.508 230.644,53.584 230.644,50.504 C230.644,48.876 230.996,47.6 231.744,46.764 C232.272,46.192 233.064,45.796 234.164,45.796 C235.352,45.796 236.188,46.192 236.716,46.852 C237.508,47.82 237.684,48.964 237.684,50.636 L241.468,50.636 C241.468,47.776 240.984,45.752 239.4,44.212 C238.212,43.068 236.496,42.408 234.208,42.408 C232.14,42.408 230.468,43.068 229.236,44.212 C227.652,45.664 226.86,47.908 226.86,50.636 C226.86,55.388 227.916,57.148 231.128,58.468 L234.692,59.92 C237.244,60.976 237.772,62.076 237.772,65.684 C237.772,67.752 237.596,68.94 236.76,69.864 C236.188,70.48 235.352,70.876 234.076,70.876 C232.888,70.876 232.008,70.48 231.48,69.908 C230.644,69.028 230.424,67.884 230.424,65.816 L226.64,65.816 C226.64,69.16 227.124,70.964 228.576,72.416 C229.808,73.648 231.656,74.308 234.076,74.308 C236.584,74.308 238.432,73.56 239.62,72.416 C241.116,70.92 241.556,68.852 241.556,65.596 Z M260.036,65.596 C260.036,60.668 259.2,58.468 255.636,57.016 L252.116,55.564 C249.608,54.508 249.124,53.584 249.124,50.504 C249.124,48.876 249.476,47.6 250.224,46.764 C250.752,46.192 251.544,45.796 252.644,45.796 C253.832,45.796 254.668,46.192 255.196,46.852 C255.988,47.82 256.164,48.964 256.164,50.636 L259.948,50.636 C259.948,47.776 259.464,45.752 257.88,44.212 C256.692,43.068 254.976,42.408 252.688,42.408 C250.62,42.408 248.948,43.068 247.716,44.212 C246.132,45.664 245.34,47.908 245.34,50.636 C245.34,55.388 246.396,57.148 249.608,58.468 L253.172,59.92 C255.724,60.976 256.252,62.076 256.252,65.684 C256.252,67.752 256.076,68.94 255.24,69.864 C254.668,70.48 253.832,70.876 252.556,70.876 C251.368,70.876 250.488,70.48 249.96,69.908 C249.124,69.028 248.904,67.884 248.904,65.816 L245.12,65.816 C245.12,69.16 245.604,70.964 247.056,72.416 C248.288,73.648 250.136,74.308 252.556,74.308 C255.064,74.308 256.912,73.56 258.1,72.416 C259.596,70.92 260.036,68.852 260.036,65.596 Z M276.844,74 L276.844,70.612 L268.528,70.612 L268.528,59.964 L275.7,59.964 L275.7,56.576 L268.528,56.576 L268.528,46.06 L276.844,46.06 L276.844,42.672 L264.744,42.672 L264.744,74 L276.844,74 Z M301.22,74 L301.22,42.672 L297.656,42.672 L291.364,60.096 L285.028,42.672 L281.464,42.672 L281.464,74 L285.248,74 L285.248,52.044 L290.132,66.344 L292.464,66.344 L297.436,51.692 L297.436,74 L301.22,74 Z M321.416,64.98 C321.416,62.868 321.24,60.58 319.612,58.864 C319.084,58.292 318.424,57.896 317.676,57.676 C318.336,57.456 318.952,57.016 319.48,56.488 C320.976,54.992 321.196,53.144 321.196,50.988 C321.196,47.82 320.756,46.016 319.392,44.564 C318.116,43.244 316.4,42.672 313.672,42.672 L306.896,42.672 L306.896,74 L313.628,74 C316.4,74 318.16,73.428 319.436,72.108 C320.844,70.656 321.416,68.676 321.416,64.98 Z M317.632,64.98 C317.632,69.292 316.268,70.612 313.408,70.612 L310.68,70.612 L310.68,59.348 L313.408,59.348 C316.224,59.348 317.632,60.976 317.632,64.98 Z M317.412,51.076 C317.412,54.64 316.092,56.092 313.364,56.092 L310.68,56.092 L310.68,46.06 L313.364,46.06 C316.092,46.06 317.412,47.248 317.412,51.076 Z M338.532,74 L338.532,70.612 L330.216,70.612 L330.216,42.672 L326.432,42.672 L326.432,74 L338.532,74 Z M354.944,42.672 L350.764,42.672 L347.244,56.048 L343.724,42.672 L339.588,42.672 L345.352,61.328 L345.352,74 L349.136,74 L349.136,61.328 L354.944,42.672 Z M385.832,74 L385.832,42.672 L382.268,42.672 L375.976,60.096 L369.64,42.672 L366.076,42.672 L366.076,74 L369.86,74 L369.86,52.044 L374.744,66.344 L377.076,66.344 L382.048,51.692 L382.048,74 L385.832,74 Z M403.608,74 L403.608,70.612 L395.292,70.612 L395.292,59.964 L402.464,59.964 L402.464,56.576 L395.292,56.576 L395.292,46.06 L403.608,46.06 L403.608,42.672 L391.508,42.672 L391.508,74 L403.608,74 Z M420.328,74 L420.328,70.612 L412.012,70.612 L412.012,59.964 L419.184,59.964 L419.184,56.576 L412.012,56.576 L412.012,46.06 L420.328,46.06 L420.328,42.672 L408.228,42.672 L408.228,74 L420.328,74 Z M437.356,46.06 L437.356,42.672 L423.056,42.672 L423.056,46.06 L428.336,46.06 L428.336,74 L432.12,74 L432.12,46.06 L437.356,46.06 Z M444.88,74 L444.88,42.672 L441.096,42.672 L441.096,74 L444.88,74 Z M465.868,74 L465.868,42.672 L462.084,42.672 L462.128,64.1 L454.076,42.672 L450.556,42.672 L450.556,74 L454.34,74 L454.34,52.572 L462.436,74 L465.868,74 Z M485.712,66.476 L485.712,57.192 L478.452,57.192 L478.452,60.36 L481.928,60.36 L481.928,66.608 C481.928,69.16 480.652,70.964 478.452,70.964 C477.22,70.964 476.428,70.48 475.9,69.776 C474.8,68.28 474.58,65.772 474.58,58.336 C474.58,50.9 474.8,48.392 475.9,46.896 C476.428,46.192 477.22,45.708 478.452,45.708 C481.356,45.708 481.928,48.348 481.928,50.46 L485.712,50.46 C485.668,47.908 484.964,45.752 483.512,44.256 C482.324,43.068 480.652,42.32 478.452,42.32 C475.944,42.32 474.272,43.244 473.084,44.564 C470.928,46.94 470.796,50.504 470.796,58.336 C470.796,66.168 470.928,69.732 473.084,72.108 C474.272,73.428 475.944,74.352 478.452,74.352 C482.544,74.352 485.712,71.668 485.712,66.476 Z M510.836,74 L510.836,70.788 L502.036,70.788 L509.032,55.916 C510,53.848 510.836,51.164 510.836,48.832 C510.836,46.5 510.088,44.96 508.988,43.904 C507.888,42.848 506.304,42.32 504.588,42.32 C502.872,42.32 501.156,42.936 500.056,43.992 C498.956,45.092 498.296,46.5 498.296,48.788 L498.296,50.812 L501.86,50.812 L501.86,48.7 C501.86,46.588 503.092,45.532 504.588,45.532 C506.084,45.532 507.272,46.588 507.272,48.7 C507.272,51.208 506.568,53.232 505.864,54.772 L498.208,71.008 L498.208,74 L510.836,74 Z M527.468,67.84 L527.468,48.832 C527.468,46.5 526.808,45.092 525.708,43.992 C524.608,42.936 522.892,42.32 521.176,42.32 C519.46,42.32 517.788,42.936 516.688,43.992 C515.588,45.092 514.928,46.5 514.928,48.832 L514.928,67.84 C514.928,70.172 515.588,71.58 516.688,72.68 C517.788,73.736 519.46,74.352 521.176,74.352 C522.892,74.352 524.608,73.736 525.708,72.68 C526.808,71.58 527.468,70.172 527.468,67.84 Z M523.904,67.972 C523.904,70.084 522.672,71.14 521.176,71.14 C519.68,71.14 518.492,70.084 518.492,67.972 L518.492,48.7 C518.492,46.588 519.68,45.532 521.176,45.532 C522.672,45.532 523.904,46.588 523.904,48.7 L523.904,67.972 Z M544.364,74 L544.364,70.788 L535.564,70.788 L542.56,55.916 C543.528,53.848 544.364,51.164 544.364,48.832 C544.364,46.5 543.616,44.96 542.516,43.904 C541.416,42.848 539.832,42.32 538.116,42.32 C536.4,42.32 534.684,42.936 533.584,43.992 C532.484,45.092 531.824,46.5 531.824,48.788 L531.824,50.812 L535.388,50.812 L535.388,48.7 C535.388,46.588 536.62,45.532 538.116,45.532 C539.612,45.532 540.8,46.588 540.8,48.7 C540.8,51.208 540.096,53.232 539.392,54.772 L531.736,71.008 L531.736,74 L544.364,74 Z M561.128,64.628 C561.128,59.612 560.688,58.16 559.544,56.796 C558.576,55.652 557.256,54.992 555.672,54.992 C554.836,54.992 554.044,55.256 553.428,55.74 L558.532,42.672 L554.88,42.672 L549.6,56.752 C548.764,58.952 548.324,61.46 548.324,64.628 C548.324,68.852 548.632,70.568 549.908,72.24 C550.92,73.56 552.592,74.352 554.704,74.352 C556.64,74.352 558.444,73.692 559.544,72.24 C560.688,70.744 561.128,69.072 561.128,64.628 Z M557.564,64.584 C557.564,67.312 557.52,69.292 556.684,70.304 C556.2,70.876 555.496,71.14 554.704,71.14 C553.912,71.14 553.252,70.876 552.768,70.304 C551.932,69.292 551.888,67.312 551.888,64.584 C551.888,61.856 551.932,59.876 552.768,58.864 C553.252,58.292 553.956,57.984 554.704,57.984 C555.452,57.984 556.2,58.292 556.684,58.864 C557.52,59.876 557.564,61.856 557.564,64.584 Z M91.896,121 L97.948,96.792 L96.01,96.792 L90.91,117.838 L85.266,96.792 L83.362,96.792 L77.718,117.838 L72.618,96.792 L70.68,96.792 L76.732,121 L78.602,121 L84.314,99.92 L90.026,121 L91.896,121 Z M113.866,112.806 C113.866,110.46 113.56,107.944 111.826,106.21 C110.636,105.02 109.14,104.408 107.27,104.408 C105.434,104.408 103.904,105.02 102.714,106.21 C100.98,107.944 100.674,110.46 100.674,112.806 C100.674,115.152 100.98,117.668 102.714,119.402 C103.904,120.592 105.434,121.204 107.27,121.204 C109.14,121.204 110.636,120.592 111.826,119.402 C113.56,117.668 113.866,115.152 113.866,112.806 Z M112.132,112.806 C112.132,114.71 112.03,116.92 110.67,118.28 C109.752,119.198 108.596,119.674 107.27,119.674 C105.944,119.674 104.788,119.198 103.87,118.28 C102.51,116.92 102.408,114.71 102.408,112.806 C102.408,110.902 102.51,108.692 103.87,107.332 C104.788,106.414 105.944,105.938 107.27,105.938 C108.596,105.938 109.752,106.414 110.67,107.332 C112.03,108.692 112.132,110.902 112.132,112.806 Z M128.424,107.23 L129.682,105.972 C128.492,104.782 127.336,104.408 125.738,104.408 C123.8,104.408 121.896,105.258 120.944,106.788 L120.944,104.612 L119.21,104.612 L119.21,121 L120.944,121 L120.944,110.902 C120.944,108.284 122.508,105.938 125.33,105.938 C126.69,105.938 127.438,106.244 128.424,107.23 Z M136.692,121 L138.188,121 L138.188,119.47 L136.998,119.47 C135.06,119.47 134.482,118.586 134.482,116.716 L134.482,96.792 L132.748,96.792 L132.748,116.75 C132.748,119.334 134.006,121 136.692,121 Z M152.304,121 L154.038,121 L154.038,96.792 L152.304,96.792 L152.304,106.72 C150.842,104.816 149.312,104.408 147.442,104.408 C145.708,104.408 144.28,104.986 143.43,105.836 C141.764,107.502 141.322,110.222 141.322,112.806 C141.322,115.39 141.764,118.11 143.43,119.776 C144.28,120.626 145.708,121.204 147.442,121.204 C149.312,121.204 150.842,120.796 152.304,118.892 L152.304,121 Z M152.304,112.806 C152.304,116.206 151.692,119.674 147.68,119.674 C143.668,119.674 143.056,116.206 143.056,112.806 C143.056,109.406 143.668,105.938 147.68,105.938 C151.692,105.938 152.304,109.406 152.304,112.806 Z M170.982,98.424 L183.834,98.424 L183.834,96.792 L169.146,96.792 L169.146,121 L170.982,121 L170.982,110.018 L181.93,110.018 L181.93,108.386 L170.982,108.386 L170.982,98.424 Z M188.77,113.18 L200.16,113.18 L200.16,112.398 C200.16,107.366 197.712,104.408 193.598,104.408 C189.484,104.408 187.036,107.502 187.036,112.806 C187.036,118.28 189.484,121.204 194.006,121.204 C196.726,121.204 198.256,120.354 199.922,118.688 L198.63,117.668 C197.236,119.062 196.046,119.64 194.108,119.64 C190.606,119.64 188.77,117.362 188.77,113.18 Z M198.426,111.786 L188.77,111.786 C188.872,110.188 188.974,109.746 189.348,108.692 C190.062,106.958 191.694,105.938 193.598,105.938 C195.502,105.938 197.134,106.958 197.848,108.692 C198.29,109.678 198.324,110.222 198.426,111.786 Z M215.5,121 L217.234,121 L217.234,96.792 L215.5,96.792 L215.5,106.72 C214.038,104.816 212.508,104.408 210.638,104.408 C208.904,104.408 207.476,104.986 206.626,105.836 C204.96,107.502 204.518,110.222 204.518,112.806 C204.518,115.39 204.96,118.11 206.626,119.776 C207.476,120.626 208.904,121.204 210.638,121.204 C212.508,121.204 214.038,120.796 215.5,118.892 L215.5,121 Z M215.5,112.806 C215.5,116.206 214.888,119.674 210.876,119.674 C206.864,119.674 206.252,116.206 206.252,112.806 C206.252,109.406 206.864,105.938 210.876,105.938 C214.888,105.938 215.5,109.406 215.5,112.806 Z M224.312,113.18 L235.702,113.18 L235.702,112.398 C235.702,107.366 233.254,104.408 229.14,104.408 C225.026,104.408 222.578,107.502 222.578,112.806 C222.578,118.28 225.026,121.204 229.548,121.204 C232.268,121.204 233.798,120.354 235.464,118.688 L234.172,117.668 C232.778,119.062 231.588,119.64 229.65,119.64 C226.148,119.64 224.312,117.362 224.312,113.18 Z M233.968,111.786 L224.312,111.786 C224.414,110.188 224.516,109.746 224.89,108.692 C225.604,106.958 227.236,105.938 229.14,105.938 C231.044,105.938 232.676,106.958 233.39,108.692 C233.832,109.678 233.866,110.222 233.968,111.786 Z M250.226,107.23 L251.484,105.972 C250.294,104.782 249.138,104.408 247.54,104.408 C245.602,104.408 243.698,105.258 242.746,106.788 L242.746,104.612 L241.012,104.612 L241.012,121 L242.746,121 L242.746,110.902 C242.746,108.284 244.31,105.938 247.132,105.938 C248.492,105.938 249.24,106.244 250.226,107.23 Z M264.24,121 L265.974,121 L265.974,109.78 C265.974,106.346 263.968,104.408 259.616,104.408 C256.93,104.408 255.23,104.986 253.836,106.924 L255.094,108.012 C256.148,106.516 257.304,105.938 259.616,105.938 C262.982,105.938 264.24,107.332 264.24,109.95 L264.24,111.786 L258.936,111.786 C255.366,111.786 253.224,113.52 253.224,116.512 C253.224,117.736 253.632,118.926 254.414,119.708 C255.468,120.796 256.794,121.204 259.242,121.204 C261.554,121.204 262.846,120.762 264.24,119.368 L264.24,121 Z M264.24,113.18 L264.24,115.288 C264.24,116.784 263.934,117.838 263.322,118.416 C262.132,119.538 260.738,119.674 259.242,119.674 C256.25,119.674 254.958,118.654 254.958,116.478 C254.958,114.268 256.352,113.18 259.14,113.18 L264.24,113.18 Z M276.486,121 L277.982,121 L277.982,119.47 L276.792,119.47 C275.058,119.47 274.276,118.484 274.276,116.75 L274.276,105.904 L277.982,105.904 L277.982,104.612 L274.276,104.612 L274.276,99.376 L272.542,99.376 L272.542,104.612 L270.298,104.612 L270.298,105.904 L272.542,105.904 L272.542,116.716 C272.542,119.198 273.902,121 276.486,121 Z M282.884,121 L284.618,121 L284.618,104.612 L282.884,104.612 L282.884,121 Z M282.68,98.934 L284.822,98.934 L284.822,96.792 L282.68,96.792 L282.68,98.934 Z M303.154,112.806 C303.154,110.46 302.848,107.944 301.114,106.21 C299.924,105.02 298.428,104.408 296.558,104.408 C294.722,104.408 293.192,105.02 292.002,106.21 C290.268,107.944 289.962,110.46 289.962,112.806 C289.962,115.152 290.268,117.668 292.002,119.402 C293.192,120.592 294.722,121.204 296.558,121.204 C298.428,121.204 299.924,120.592 301.114,119.402 C302.848,117.668 303.154,115.152 303.154,112.806 Z M301.42,112.806 C301.42,114.71 301.318,116.92 299.958,118.28 C299.04,119.198 297.884,119.674 296.558,119.674 C295.232,119.674 294.076,119.198 293.158,118.28 C291.798,116.92 291.696,114.71 291.696,112.806 C291.696,110.902 291.798,108.692 293.158,107.332 C294.076,106.414 295.232,105.938 296.558,105.938 C297.884,105.938 299.04,106.414 299.958,107.332 C301.318,108.692 301.42,110.902 301.42,112.806 Z M319.378,121 L321.112,121 L321.112,110.528 C321.112,108.59 320.534,107.06 319.412,105.972 C318.324,104.918 316.862,104.408 315.06,104.408 C313.054,104.408 311.456,105.122 310.232,106.55 L310.232,104.612 L308.498,104.612 L308.498,121 L310.232,121 L310.232,110.834 C310.232,107.706 311.898,105.938 314.856,105.938 C317.814,105.938 319.378,107.672 319.378,110.834 L319.378,121 Z M347.814,112.806 C347.814,110.46 347.508,107.944 345.774,106.21 C344.584,105.02 343.088,104.408 341.218,104.408 C339.382,104.408 337.852,105.02 336.662,106.21 C334.928,107.944 334.622,110.46 334.622,112.806 C334.622,115.152 334.928,117.668 336.662,119.402 C337.852,120.592 339.382,121.204 341.218,121.204 C343.088,121.204 344.584,120.592 345.774,119.402 C347.508,117.668 347.814,115.152 347.814,112.806 Z M346.08,112.806 C346.08,114.71 345.978,116.92 344.618,118.28 C343.7,119.198 342.544,119.674 341.218,119.674 C339.892,119.674 338.736,119.198 337.818,118.28 C336.458,116.92 336.356,114.71 336.356,112.806 C336.356,110.902 336.458,108.692 337.818,107.332 C338.736,106.414 339.892,105.938 341.218,105.938 C342.544,105.938 343.7,106.414 344.618,107.332 C345.978,108.692 346.08,110.902 346.08,112.806 Z M355.402,105.904 L359.108,105.904 L359.108,104.612 L355.402,104.612 L355.402,101.042 C355.402,99.308 356.184,98.322 357.918,98.322 L359.108,98.322 L359.108,96.792 L357.612,96.792 C355.028,96.792 353.668,98.594 353.668,101.076 L353.668,104.612 L351.424,104.612 L351.424,105.904 L353.668,105.904 L353.668,121 L355.402,121 L355.402,105.904 Z M89.38,146.896 C89.38,141.422 89.346,139.28 87.136,137.07 C85.538,135.472 83.396,134.588 81.084,134.588 C78.772,134.588 76.63,135.472 75.032,137.07 C72.822,139.28 72.788,141.422 72.788,146.896 C72.788,152.336 72.822,154.512 75.032,156.722 C76.63,158.32 78.772,159.204 81.084,159.204 C83.396,159.204 85.538,158.32 87.136,156.722 C89.346,154.512 89.38,152.336 89.38,146.896 Z M87.544,146.896 C87.544,152.064 87.408,153.968 85.674,155.702 C84.45,156.926 82.818,157.572 81.084,157.572 C79.35,157.572 77.718,156.926 76.494,155.702 C74.76,153.968 74.624,152.064 74.624,146.896 C74.624,141.728 74.76,139.824 76.494,138.09 C77.718,136.866 79.35,136.22 81.084,136.22 C82.818,136.22 84.45,136.866 85.674,138.09 C87.408,139.824 87.544,141.728 87.544,146.896 Z M106.828,156.688 L105.638,155.6 C104.244,157.13 103.156,157.674 101.422,157.674 C99.552,157.674 98.056,156.96 97.07,155.498 C96.254,154.308 95.948,153.016 95.948,150.806 C95.948,148.596 96.254,147.304 97.07,146.114 C98.056,144.652 99.552,143.938 101.422,143.938 C103.156,143.938 104.244,144.448 105.638,146.012 L106.828,144.924 C105.094,142.986 103.666,142.408 101.422,142.408 C96.934,142.408 94.214,145.604 94.214,150.806 C94.214,156.008 96.934,159.204 101.422,159.204 C103.666,159.204 105.094,158.626 106.828,156.688 Z M123.29,156.688 L122.1,155.6 C120.706,157.13 119.618,157.674 117.884,157.674 C116.014,157.674 114.518,156.96 113.532,155.498 C112.716,154.308 112.41,153.016 112.41,150.806 C112.41,148.596 112.716,147.304 113.532,146.114 C114.518,144.652 116.014,143.938 117.884,143.938 C119.618,143.938 120.706,144.448 122.1,146.012 L123.29,144.924 C121.556,142.986 120.128,142.408 117.884,142.408 C113.396,142.408 110.676,145.604 110.676,150.806 C110.676,156.008 113.396,159.204 117.884,159.204 C120.128,159.204 121.556,158.626 123.29,156.688 Z M138.766,159 L140.5,159 L140.5,142.612 L138.766,142.612 L138.766,152.778 C138.766,155.906 137.1,157.674 134.142,157.674 C131.184,157.674 129.62,155.94 129.62,152.778 L129.62,142.612 L127.886,142.612 L127.886,153.084 C127.886,155.022 128.464,156.552 129.586,157.64 C130.674,158.694 132.136,159.204 133.938,159.204 C135.944,159.204 137.542,158.49 138.766,157.062 L138.766,159 Z M159.512,150.806 C159.512,148.222 159.07,145.502 157.404,143.836 C156.554,142.986 155.126,142.408 153.392,142.408 C151.522,142.408 149.992,142.816 148.53,144.72 L148.53,142.612 L146.796,142.612 L146.796,166.82 L148.53,166.82 L148.53,156.892 C149.992,158.796 151.522,159.204 153.392,159.204 C155.126,159.204 156.554,158.626 157.404,157.776 C159.07,156.11 159.512,153.39 159.512,150.806 Z M157.778,150.806 C157.778,154.206 157.166,157.674 153.154,157.674 C149.142,157.674 148.53,154.206 148.53,150.806 C148.53,147.406 149.142,143.938 153.154,143.938 C157.166,143.938 157.778,147.406 157.778,150.806 Z M174.478,159 L176.212,159 L176.212,147.78 C176.212,144.346 174.206,142.408 169.854,142.408 C167.168,142.408 165.468,142.986 164.074,144.924 L165.332,146.012 C166.386,144.516 167.542,143.938 169.854,143.938 C173.22,143.938 174.478,145.332 174.478,147.95 L174.478,149.786 L169.174,149.786 C165.604,149.786 163.462,151.52 163.462,154.512 C163.462,155.736 163.87,156.926 164.652,157.708 C165.706,158.796 167.032,159.204 169.48,159.204 C171.792,159.204 173.084,158.762 174.478,157.368 L174.478,159 Z M174.478,151.18 L174.478,153.288 C174.478,154.784 174.172,155.838 173.56,156.416 C172.37,157.538 170.976,157.674 169.48,157.674 C166.488,157.674 165.196,156.654 165.196,154.478 C165.196,152.268 166.59,151.18 169.378,151.18 L174.478,151.18 Z M186.724,159 L188.22,159 L188.22,157.47 L187.03,157.47 C185.296,157.47 184.514,156.484 184.514,154.75 L184.514,143.904 L188.22,143.904 L188.22,142.612 L184.514,142.612 L184.514,137.376 L182.78,137.376 L182.78,142.612 L180.536,142.612 L180.536,143.904 L182.78,143.904 L182.78,154.716 C182.78,157.198 184.14,159 186.724,159 Z M193.122,159 L194.856,159 L194.856,142.612 L193.122,142.612 L193.122,159 Z M192.918,136.934 L195.06,136.934 L195.06,134.792 L192.918,134.792 L192.918,136.934 Z M213.392,150.806 C213.392,148.46 213.086,145.944 211.352,144.21 C210.162,143.02 208.666,142.408 206.796,142.408 C204.96,142.408 203.43,143.02 202.24,144.21 C200.506,145.944 200.2,148.46 200.2,150.806 C200.2,153.152 200.506,155.668 202.24,157.402 C203.43,158.592 204.96,159.204 206.796,159.204 C208.666,159.204 210.162,158.592 211.352,157.402 C213.086,155.668 213.392,153.152 213.392,150.806 Z M211.658,150.806 C211.658,152.71 211.556,154.92 210.196,156.28 C209.278,157.198 208.122,157.674 206.796,157.674 C205.47,157.674 204.314,157.198 203.396,156.28 C202.036,154.92 201.934,152.71 201.934,150.806 C201.934,148.902 202.036,146.692 203.396,145.332 C204.314,144.414 205.47,143.938 206.796,143.938 C208.122,143.938 209.278,144.414 210.196,145.332 C211.556,146.692 211.658,148.902 211.658,150.806 Z M229.616,159 L231.35,159 L231.35,148.528 C231.35,146.59 230.772,145.06 229.65,143.972 C228.562,142.918 227.1,142.408 225.298,142.408 C223.292,142.408 221.694,143.122 220.47,144.55 L220.47,142.612 L218.736,142.612 L218.736,159 L220.47,159 L220.47,148.834 C220.47,145.706 222.136,143.938 225.094,143.938 C228.052,143.938 229.616,145.672 229.616,148.834 L229.616,159 Z M247.064,159 L248.798,159 L248.798,147.78 C248.798,144.346 246.792,142.408 242.44,142.408 C239.754,142.408 238.054,142.986 236.66,144.924 L237.918,146.012 C238.972,144.516 240.128,143.938 242.44,143.938 C245.806,143.938 247.064,145.332 247.064,147.95 L247.064,149.786 L241.76,149.786 C238.19,149.786 236.048,151.52 236.048,154.512 C236.048,155.736 236.456,156.926 237.238,157.708 C238.292,158.796 239.618,159.204 242.066,159.204 C244.378,159.204 245.67,158.762 247.064,157.368 L247.064,159 Z M247.064,151.18 L247.064,153.288 C247.064,154.784 246.758,155.838 246.146,156.416 C244.956,157.538 243.562,157.674 242.066,157.674 C239.074,157.674 237.782,156.654 237.782,154.478 C237.782,152.268 239.176,151.18 241.964,151.18 L247.064,151.18 Z M258.834,159 L260.33,159 L260.33,157.47 L259.14,157.47 C257.202,157.47 256.624,156.586 256.624,154.716 L256.624,134.792 L254.89,134.792 L254.89,154.75 C254.89,157.334 256.148,159 258.834,159 Z M279.552,136.424 L286.794,136.424 L286.794,134.792 L270.508,134.792 L270.508,136.424 L277.716,136.424 L277.716,159 L279.552,159 L279.552,136.424 Z M301.692,159 L303.426,159 L303.426,148.528 C303.426,144.72 301.148,142.408 297.374,142.408 C295.368,142.408 293.77,143.122 292.546,144.55 L292.546,134.792 L290.812,134.792 L290.812,159 L292.546,159 L292.546,148.834 C292.546,145.706 294.212,143.938 297.17,143.938 C300.128,143.938 301.692,145.672 301.692,148.834 L301.692,159 Z M310.3,151.18 L321.69,151.18 L321.69,150.398 C321.69,145.366 319.242,142.408 315.128,142.408 C311.014,142.408 308.566,145.502 308.566,150.806 C308.566,156.28 311.014,159.204 315.536,159.204 C318.256,159.204 319.786,158.354 321.452,156.688 L320.16,155.668 C318.766,157.062 317.576,157.64 315.638,157.64 C312.136,157.64 310.3,155.362 310.3,151.18 Z M319.956,149.786 L310.3,149.786 C310.402,148.188 310.504,147.746 310.878,146.692 C311.592,144.958 313.224,143.938 315.128,143.938 C317.032,143.938 318.664,144.958 319.378,146.692 C319.82,147.678 319.854,148.222 319.956,149.786 Z M336.214,145.23 L337.472,143.972 C336.282,142.782 335.126,142.408 333.528,142.408 C331.59,142.408 329.686,143.258 328.734,144.788 L328.734,142.612 L327,142.612 L327,159 L328.734,159 L328.734,148.902 C328.734,146.284 330.298,143.938 333.12,143.938 C334.48,143.938 335.228,144.244 336.214,145.23 Z M350.228,159 L351.962,159 L351.962,147.78 C351.962,144.346 349.956,142.408 345.604,142.408 C342.918,142.408 341.218,142.986 339.824,144.924 L341.082,146.012 C342.136,144.516 343.292,143.938 345.604,143.938 C348.97,143.938 350.228,145.332 350.228,147.95 L350.228,149.786 L344.924,149.786 C341.354,149.786 339.212,151.52 339.212,154.512 C339.212,155.736 339.62,156.926 340.402,157.708 C341.456,158.796 342.782,159.204 345.23,159.204 C347.542,159.204 348.834,158.762 350.228,157.368 L350.228,159 Z M350.228,151.18 L350.228,153.288 C350.228,154.784 349.922,155.838 349.31,156.416 C348.12,157.538 346.726,157.674 345.23,157.674 C342.238,157.674 340.946,156.654 340.946,154.478 C340.946,152.268 342.34,151.18 345.128,151.18 L350.228,151.18 Z M370.838,150.806 C370.838,148.222 370.396,145.502 368.73,143.836 C367.88,142.986 366.452,142.408 364.718,142.408 C362.848,142.408 361.318,142.816 359.856,144.72 L359.856,142.612 L358.122,142.612 L358.122,166.82 L359.856,166.82 L359.856,156.892 C361.318,158.796 362.848,159.204 364.718,159.204 C366.452,159.204 367.88,158.626 368.73,157.776 C370.396,156.11 370.838,153.39 370.838,150.806 Z M369.104,150.806 C369.104,154.206 368.492,157.674 364.48,157.674 C360.468,157.674 359.856,154.206 359.856,150.806 C359.856,147.406 360.468,143.938 364.48,143.938 C368.492,143.938 369.104,147.406 369.104,150.806 Z M376.182,159 L377.916,159 L377.916,142.612 L376.182,142.612 L376.182,159 Z M375.978,136.934 L378.12,136.934 L378.12,134.792 L375.978,134.792 L375.978,136.934 Z M395.806,154.342 C395.806,151.146 393.732,150.33 391.012,150.058 L388.36,149.82 C386.048,149.582 385.028,148.8 385.028,147.066 C385.028,145.026 386.49,143.904 389.21,143.904 C391.012,143.904 392.542,144.38 393.8,145.298 L394.956,144.142 C393.494,143.054 391.488,142.408 389.21,142.408 C385.64,142.408 383.328,144.21 383.328,147.066 C383.328,149.65 384.96,151.078 388.258,151.35 L390.978,151.588 C393.154,151.826 394.106,152.608 394.106,154.342 C394.106,156.552 392.406,157.674 389.176,157.674 C386.864,157.674 385.062,156.994 383.804,155.668 L382.614,156.858 C384.28,158.456 386.388,159.204 389.244,159.204 C393.29,159.204 395.806,157.334 395.806,154.342 Z M405.06,159 L406.556,159 L406.556,157.47 L405.366,157.47 C403.632,157.47 402.85,156.484 402.85,154.75 L402.85,143.904 L406.556,143.904 L406.556,142.612 L402.85,142.612 L402.85,137.376 L401.116,137.376 L401.116,142.612 L398.872,142.612 L398.872,143.904 L401.116,143.904 L401.116,154.716 C401.116,157.198 402.476,159 405.06,159 Z M423.052,154.342 C423.052,151.146 420.978,150.33 418.258,150.058 L415.606,149.82 C413.294,149.582 412.274,148.8 412.274,147.066 C412.274,145.026 413.736,143.904 416.456,143.904 C418.258,143.904 419.788,144.38 421.046,145.298 L422.202,144.142 C420.74,143.054 418.734,142.408 416.456,142.408 C412.886,142.408 410.574,144.21 410.574,147.066 C410.574,149.65 412.206,151.078 415.504,151.35 L418.224,151.588 C420.4,151.826 421.352,152.608 421.352,154.342 C421.352,156.552 419.652,157.674 416.422,157.674 C414.11,157.674 412.308,156.994 411.05,155.668 L409.86,156.858 C411.526,158.456 413.634,159.204 416.49,159.204 C420.536,159.204 423.052,157.334 423.052,154.342 Z" id="Combined-Shape" fill="#1E1734" fill-rule="nonzero"></path>
    </g>
</svg>